<svg xmlns="http://www.w3.org/2000/svg" width="13.26" height="19" viewBox="0 0 13.26 19">
  <g id="direction" transform="translate(-52.692 -1197)">
    <g id="Google_Maps_icon__2020_" data-name="Google_Maps_icon_(2020)" transform="translate(52.692 1197)">
      <path id="Path_2" data-name="Path 2" d="M17.889.316A6.709,6.709,0,0,0,15.866,0,6.613,6.613,0,0,0,10.8,2.368l3.128,2.626Z" transform="translate(-9.25)" fill="#1a73e8"/>
      <path id="Path_3" data-name="Path 3" d="M1.55,16.5A6.623,6.623,0,0,0,0,20.748,7.322,7.322,0,0,0,.66,23.9l4.018-4.779Z" transform="translate(0 -14.132)" fill="#ea4335"/>
      <path id="Path_4" data-name="Path 4" d="M34.552,5.974a2.535,2.535,0,0,1,1.937,4.176s1.995-2.382,3.946-4.693A6.611,6.611,0,0,0,36.561,2.2L32.6,6.878a2.574,2.574,0,0,1,1.952-.9" transform="translate(-27.922 -1.884)" fill="#4285f4"/>
      <path id="Path_5" data-name="Path 5" d="M10.57,38.962a2.536,2.536,0,0,1-2.54-2.54A2.471,2.471,0,0,1,8.618,34.8L4.6,39.579A23.469,23.469,0,0,0,7.614,43.87l4.894-5.812a2.519,2.519,0,0,1-1.937.9" transform="translate(-3.94 -29.806)" fill="#fbbc04"/>
      <path id="Path_6" data-name="Path 6" d="M30.407,37c2.21-3.458,4.779-5.023,4.779-9.041A6.637,6.637,0,0,0,34.44,24.9L25.6,35.39c.373.488.761,1.048,1.134,1.622,1.349,2.081.976,3.315,1.837,3.315s.488-1.248,1.837-3.329" transform="translate(-21.926 -21.327)" fill="#34a853"/>
    </g>
  </g>
</svg>
