<svg xmlns="http://www.w3.org/2000/svg" xmlns:xlink="http://www.w3.org/1999/xlink" width="42.594" height="49.55" viewBox="0 0 42.594 49.55">
  <defs>
    <linearGradient id="linear-gradient" x1="0.284" y1="0.84" x2="0.477" y2="0.608" gradientUnits="objectBoundingBox">
      <stop offset="0" stop-color="#ff2f00"/>
      <stop offset="1" stop-color="#f08601"/>
    </linearGradient>
    <linearGradient id="linear-gradient-2" x1="-0.141" y1="-0.071" x2="1.974" y2="1.935" gradientUnits="objectBoundingBox">
      <stop offset="0" stop-color="#ff4504"/>
      <stop offset="0.11" stop-color="#ff5317"/>
      <stop offset="0.33" stop-color="#ff7849"/>
      <stop offset="0.64" stop-color="#ffb499"/>
      <stop offset="1" stop-color="#fff"/>
    </linearGradient>
    <linearGradient id="linear-gradient-3" x1="0.881" y1="0.372" x2="0.545" y2="0.521" gradientUnits="objectBoundingBox">
      <stop offset="0" stop-color="#2d3092"/>
      <stop offset="1" stop-color="#5bb4d3"/>
    </linearGradient>
    <linearGradient id="linear-gradient-4" x1="-0.105" y1="-0.016" x2="0.768" y2="0.923" gradientUnits="objectBoundingBox">
      <stop offset="0" stop-color="#fff"/>
      <stop offset="1" stop-color="#5bb4d3"/>
    </linearGradient>
    <linearGradient id="linear-gradient-5" x1="0.271" y1="0.499" x2="1.088" y2="0.471" gradientUnits="objectBoundingBox">
      <stop offset="0" stop-color="#2d3092"/>
      <stop offset="0.13" stop-color="#313494"/>
      <stop offset="0.27" stop-color="#3e409b"/>
      <stop offset="0.41" stop-color="#5255a5"/>
      <stop offset="0.55" stop-color="#6f72b4"/>
      <stop offset="0.7" stop-color="#9596c8"/>
      <stop offset="0.84" stop-color="#c3c4e0"/>
      <stop offset="0.98" stop-color="#f8f8fb"/>
      <stop offset="1" stop-color="#fff"/>
    </linearGradient>
  </defs>
  <g id="neha-logo" transform="translate(0.003)">
    <g id="Layer_1" data-name="Layer 1" transform="translate(-0.003)">
      <path id="Path_10" data-name="Path 10" d="M36.276,42.181h0l.358.283.028.023q.491.4.958.818.981.857,1.845,1.724v-.034c.164.18.327.355.481.528,1.871,2.175,1.717,3.771-1.236,3.937a2.254,2.254,0,0,1-1.858-.955c.728.538,1.716.612,2.044.018.517-.913-2.038-2.591-3.408-3.709-.744,2.29-1.5,3.6-3.006,4.368a3.2,3.2,0,0,1-2.005.327c-1.927-.339-1.5-1.851-1.838-3.462-1.443-6.884-5.247-10.029-8.24.011-.559,1.874-.8,4.2-3.582,2.962-3.215-1.433-4.959-11.416-5.8-14.392a29.885,29.885,0,0,0-1.889-4.534c2.533,1.348,5.59,2.7,5.59,2.7C9.442,28.15,3.445,23.824.9,17-3.377,5.551,7.93-2.869,27.152,4.733l2.337.664a6.4,6.4,0,0,0,.046-1.063c.226.213.422.613.679.765l1.74-2.973L31,5.412a5.954,5.954,0,0,0,1.13.044c-.26.214-.725.424-.9.7l3.037,1.75L30.967,7a4.7,4.7,0,0,0,.054,1.06,4.679,4.679,0,0,0-.782-.852l-1.755,3.019.971-3.336a4.8,4.8,0,0,0-1.037.054,4.231,4.231,0,0,0,.774-.733L27.25,5.07l-.8-.285C14.8.607,6.943,3.17,4.138,8.3c-1.621,2.453-1.822,5.649-.275,9.1C8.229,27.149,26.026,33.938,36.276,42.181ZM27.215,0,26.9,1.2c-.1-.028-.211-.147-.309-.2a2.257,2.257,0,0,1,.087.373l-1.243-.011,1.22.319a1.534,1.534,0,0,1-.2.327,1.636,1.636,0,0,1,.353-.118L26.8,3.142l.316-1.217a1.742,1.742,0,0,1,.358.221,1.647,1.647,0,0,1-.121-.361h1.233l-1.23-.312c.036-.114.177-.232.245-.327a2.136,2.136,0,0,1-.4.095ZM7.673,14.142C9.037,17.9,14.012,21.4,19.793,24.725,14.007,21.35,9.11,17.856,7.691,14.082Z" transform="translate(0.003)" fill-rule="evenodd" fill="url(#linear-gradient)"/>
      <path id="Path_11" data-name="Path 11" d="M84.753,234.566c-.185.482-.366,1.021-.545,1.619-.445,1.488-.635,3.338-2.847,2.352-2.156-.96-3.479-6.756-4.241-9.967,2.139,3.052,4.3,10.816,7.633,5.994Z" transform="translate(-64.507 -191.187)" fill-rule="evenodd" fill="url(#linear-gradient-2)"/>
      <path id="Path_12" data-name="Path 12" d="M72.9,42.928c7.574,1.38,5.667,13.959,2.852,19.247-.523.981-.818,1.963-1.16,2.715-2.445-1.115-5.09-2.126-5.09-2.126.932.72,7.672,5.909,8.92,9.3-7.368-8.979-34.442-16.872-35.561-26.932-.589-5.327,8.756-7.7,18.481-5.106-7.931-1.624-15.006.044-16.376,3.906,4.671-4.483,10.611,2.6,13.105,4.6a16.284,16.284,0,0,0,7.343,3.21,12.1,12.1,0,0,0,3.163.26l-.45-.09c-2.587-.518-9.023-3.48-6.611-4.023s4.272-3.448,7.32-4.609a9.9,9.9,0,0,1,4.069-.343Zm-9.059-.357L63.331,43.7c-.1-.046-.182-.182-.271-.25a2.239,2.239,0,0,1,.025.383l-1.225-.221,1.145.52a1.5,1.5,0,0,1-.249.291,1.68,1.68,0,0,1,.373-.057l-.222,1.23.514-1.145a1.685,1.685,0,0,1,.312.276,1.591,1.591,0,0,1-.059-.378l1.215.2-1.145-.514c.052-.106.211-.2.3-.285a2.165,2.165,0,0,1-.406.026Z" transform="translate(-35.832 -32.595)" fill-rule="evenodd" fill="url(#linear-gradient-3)"/>
      <path id="Path_13" data-name="Path 13" d="M62.69,68.675c3.332-3.2,7.574,1.858,9.345,3.282,1.635,1.32,4.239,3.171,6.395,3.364C72.681,75.142,65.122,74.589,62.69,68.675Z" transform="translate(-52.437 -56.572)" fill-rule="evenodd" fill="url(#linear-gradient-4)"/>
      <path id="Path_14" data-name="Path 14" d="M218.92,69.65a6.084,6.084,0,0,1,1.192.116c6.037,1.168,4.517,11.823,2.273,16.3-.417.834-.654,1.658-.924,2.3C221.462,88.368,223.755,72.566,218.92,69.65Z" transform="translate(-183.115 -58.259)" fill-rule="evenodd" fill="url(#linear-gradient-5)"/>
    </g>
  </g>
</svg>
