<svg id="WhatsApp" xmlns="http://www.w3.org/2000/svg" xmlns:xlink="http://www.w3.org/1999/xlink" width="20.907" height="21" viewBox="0 0 20.907 21">
  <defs>
    <linearGradient id="linear-gradient" x1="0.49" y1="0.06" x2="0.495" y2="0.915" gradientUnits="objectBoundingBox">
      <stop offset="0" stop-color="#57d163"/>
      <stop offset="1" stop-color="#23b33a"/>
    </linearGradient>
  </defs>
  <path id="path400-6" d="M19.466,31.138l.315.186a8.6,8.6,0,0,0,4.381,1.2h0a8.606,8.606,0,1,0-7.292-4.033l.2.325-.87,3.175Zm-5.744,3.314,1.469-5.365a10.357,10.357,0,1,1,8.974,5.186h0a10.35,10.35,0,0,1-4.949-1.26Zm0,0" transform="translate(-13.615 -13.452)" fill="#b3b3b3"/>
  <path id="path400-6-0" d="M12.966,33.7l1.469-5.365a10.357,10.357,0,1,1,8.974,5.186h0a10.35,10.35,0,0,1-4.949-1.26Z" transform="translate(-12.966 -12.803)" fill="#fff"/>
  <path id="path61-8" d="M34.618,25.227a8.61,8.61,0,0,0-7.3,13.184l.2.325-.87,3.175,3.258-.854.315.186a8.6,8.6,0,0,0,4.381,1.2h0a8.608,8.608,0,0,0,0-17.217Z" transform="translate(-24.171 -23.478)" fill="rgba(0,0,0,0)"/>
  <path id="path15" d="M34.617,25.227a8.61,8.61,0,0,0-7.3,13.184l.2.326-.87,3.175,3.258-.854.315.186a8.6,8.6,0,0,0,4.381,1.2h0a8.608,8.608,0,0,0,0-17.217Z" transform="translate(-24.171 -23.478)" fill="url(#linear-gradient)"/>
  <path id="path418-6" d="M52.449,52.837c-.194-.431-.4-.44-.582-.447-.151-.006-.324-.006-.5-.006a.95.95,0,0,0-.69.324,2.9,2.9,0,0,0-.906,2.158,5.035,5.035,0,0,0,1.057,2.676,10.621,10.621,0,0,0,4.421,3.906c2.186.862,2.631.691,3.105.647a2.613,2.613,0,0,0,1.747-1.23,2.163,2.163,0,0,0,.151-1.23c-.065-.108-.237-.173-.5-.3s-1.531-.756-1.768-.842-.41-.129-.582.13-.668.842-.819,1.014-.3.194-.561.065a7.076,7.076,0,0,1-2.081-1.284,7.8,7.8,0,0,1-1.44-1.792c-.151-.259-.016-.4.114-.528s.259-.3.388-.453a1.774,1.774,0,0,0,.258-.431.476.476,0,0,0-.022-.453c-.065-.129-.568-1.409-.8-1.921" transform="translate(-44.594 -46.812)" fill="#fff" fill-rule="evenodd"/>
</svg>
